{"title":"Eminem Ft. Skylar Grey - Survival (Lyric Video) (Call of Duty: G","uid":8813945,"size":12811711,"categoryP":"video","categoryS":"music_videos","magnet":"?xt=urn:btih:32ff0c410eeb84c0c18df77ef03b3598be894d0b&amp;dn=Eminem+Ft.+Skylar+Grey+-+Survival+%28Lyric+Video%29+%28Call+of+Duty%3A+G&amp;tr=udp%3A%2F%2Ftracker.openbittorrent.com%3A80&amp;tr=udp%3A%2F%2Fopen.demonii.com%3A1337&amp;tr=udp%3A%2F%2Ftracker.coppersurfer.tk%3A6969&amp;tr=udp%3A%2F%2Fexodus.desync.com%3A6969","seeders":0,"leechers":0,"uploader":"deejayabc","files":1,"time":1376531896,"description":"Video \nID : 1 \nFormat : AVC \nFormat/Info : Advanced Video Codec \nFormat profile : &lt;a class=&quot;__cf_email__&quot; href=&quot;/cdn-cgi/l/email-protection&quot; data-cfemail=&quot;f7bf9e909fb7bbc4d9c6&quot;&gt;[email&amp;#160;protected]&lt;/a&gt;&lt;script cf-hash='f9e31' type=&quot;text/javascript&quot;&gt;\n/* &lt;![CDATA[ */!function(){try{var t=&quot;currentScript&quot;in document?document.currentScript:function(){for(var t=document.getElementsByTagName(&quot;script&quot;),e=t.length;e--;)if(t[e].getAttribute(&quot;cf-hash&quot;))return t[e]}();if(t&amp;&amp;t.previousSibling){var e,r,n,i,c=t.previousSibling,a=c.getAttribute(&quot;data-cfemail&quot;);if(a){for(e=&quot;&quot;,r=parseInt(a.substr(0,2),16),n=2;a.length-n;n+=2)i=parseInt(a.substr(n,2),16)^r,e+=String.fromCharCode(i);e=document.createTextNode(e),c.parentNode.replaceChild(e,c)}}}catch(u){}}();/* ]]&gt; */&lt;/script&gt; \nFormat settings, CABAC : Yes \nFormat settings, ReFrames : 1 frame \nFormat settings, GOP : M=1, N=60 \nCodec ID : avc1 \nCodec ID/Info : Advanced Video Coding \nDuration : 2mn 42s \nBit rate : 438 Kbps \nMaximum bit rate : 2 000 Kbps \nWidth : 1 280 pixels \nHeight : 720 pixels \nDisplay aspect ratio : 16:9 \nFrame rate mode : Constant \nFrame rate : 30.000 fps \nColor space : YUV \nChroma subsampling : 4:2:0 \nBit depth : 8 bits \nScan type : Progressive \nBits/(Pixel*Frame) : 0.016 \nStream size : 8.46 MiB (69%) \nTagged date : UTC 2013-08-13 19:58:21 \n\nAudio \nID : 2 \nFormat : AAC \nFormat/Info : Advanced Audio Codec \nFormat profile : LC \nCodec ID : 40 \nDuration : 2mn 42s \nBit rate mode : Variable \nBit rate : 192 Kbps \nMaximum bit rate : 203 Kbps \nChannel(s) : 2 channels \nChannel positions : Front: L R \nSampling rate : 44.1 KHz \nCompression mode : Lossy \nStream size : 3.71 MiB (30%) \nTitle : IsoMedia File Produced by Google, 5-11-2011 \nEncoded date : UTC 2013-08-13 19:58:19 \nTagged date : UTC 2013-08-13 19:58:21\n\nKeep Seeding!!=))","torrent":{"xt":"urn:btih:32ff0c410eeb84c0c18df77ef03b3598be894d0b","amp;dn":"Eminem+Ft.+Skylar+Grey+-+Survival+%28Lyric+Video%29+%28Call+of+Duty%3A+G","amp;tr":["udp%3A%2F%2Ftracker.openbittorrent.com%3A80","udp%3A%2F%2Fopen.demonii.com%3A1337","udp%3A%2F%2Ftracker.coppersurfer.tk%3A6969","udp%3A%2F%2Fexodus.desync.com%3A6969"],"infoHash":"32ff0c410eeb84c0c18df77ef03b3598be894d0b","infoHashBuffer":{"type":"Buffer","data":[50,255,12,65,14,235,132,192,193,141,247,126,240,59,53,152,190,137,77,11]},"announce":[],"urlList":[]}}